<?xml version="1.0" encoding="UTF-8" standalone="no"?>
<!DOCTYPE svg PUBLIC "-//W3C//DTD SVG 1.1//EN" "http://www.w3.org/Graphics/SVG/1.1/DTD/svg11.dtd">
<svg width="100%" height="100%" viewBox="0 0 1437 2136" version="1.1" xmlns="http://www.w3.org/2000/svg" xmlns:xlink="http://www.w3.org/1999/xlink" xml:space="preserve" xmlns:serif="http://www.serif.com/" style="fill-rule:evenodd;clip-rule:evenodd;stroke-linecap:round;stroke-linejoin:round;stroke-miterlimit:1.5;">
    <g transform="matrix(1,0,0,1,-700.185,-283.13)">
        <path d="M1382.88,1550.39C1350.25,1578.86 1292.83,1605.95 1246.46,1594.7C1212.38,1586.44 1174.54,1522.28 1170.91,1487.97C1182.13,1493.45 1197.51,1506.98 1213.61,1515.33C1264.41,1541.69 1314.41,1550.32 1370.38,1548.24C1373.51,1548.12 1373.59,1547.94 1376.96,1548.39C1382.97,1549.18 1379.72,1548.49 1382.88,1550.39ZM1575.35,1123.27C1591.3,1111.6 1647.75,1110.89 1665.16,1156.98C1672.74,1177.03 1671.32,1195.13 1665.52,1216.19C1660.49,1234.46 1650.29,1244.13 1633.11,1251.33C1568.22,1278.54 1512.76,1211 1543.78,1153.85C1559.9,1124.14 1566.98,1129.4 1575.35,1123.27ZM1367.19,1203.51C1384.39,1246.7 1436.28,1264.77 1479.29,1249.54C1464.56,1264.24 1456.91,1257.03 1449.24,1265.33L1403,1352.84C1385.4,1382.48 1349.86,1433.99 1314.44,1442.74C1249.72,1458.71 1244.61,1376.49 1244.74,1332.65C1244.83,1305.86 1247.54,1275.1 1251.06,1248.48C1262.27,1163.61 1250.23,1212.19 1246.34,1175.84C1286.37,1226.37 1311.91,1206.64 1367.19,1203.51ZM1371.49,1131.68C1382.95,1122.73 1395.91,1119.85 1405.73,1134.12C1420.1,1155.01 1393.34,1153.91 1380.12,1152.67C1371.23,1143.61 1371.31,1145.4 1371.49,1131.68ZM1174.75,978.175C1189.18,972.684 1223.76,974.225 1237.58,983.833C1299.89,1027.14 1260.55,1100.8 1223.41,1109.78C1131.34,1132.03 1116.17,1042.41 1138.66,1010.33C1146.29,999.452 1163.29,982.534 1174.75,978.175ZM1304.86,514.82C1296.78,533.319 1272.2,564.72 1260.34,584.871C1215.3,661.405 1188.17,742.693 1174.93,830.971C1193.34,821.908 1206.58,812.118 1227.93,809.524C1178.21,833.51 1146.52,852.115 1119.48,901.677C1107.31,923.975 1054.68,1021.8 1054.42,1039.51C1057.51,1059.5 1041.37,1070.17 1039.05,1090.19C1063.51,1090.06 1078.21,1089.2 1098.03,1103.8C1110.12,1112.7 1106.09,1113.53 1116.63,1121.64C1126.55,1129.28 1128.9,1132.03 1127.11,1145.54C1129.11,1180.16 1143.52,1192.39 1122.76,1231.81C1110.72,1254.65 1091.75,1270.7 1070.53,1284.51C1077.91,1314.41 1118.3,1387.89 1116.2,1429.1C1108.34,1387.32 1064.4,1281.97 1043.73,1241.91C1030.37,1216.03 1012.33,1183.64 995.175,1159.3C985.495,1145.56 946.124,1091.12 937.448,1087.89C924.303,1088.78 929.407,1088.12 920.327,1077.65C892.14,1045.14 903.925,1055.4 888.091,1057.21C874.314,1058.77 874.13,1041.79 856.107,1045.95C847.322,1047.97 851.928,1050.71 840.823,1052C831.054,1053.13 830.925,1050.5 821.469,1050.03C815.417,1055.68 814.427,1060.34 806.824,1063.95C795.469,1069.36 800.893,1063.06 785.91,1064.73L780.79,1085.1L762.809,1089.44C763.802,1129.37 767.623,1170.23 768.581,1209.96C769.034,1228.77 769.11,1248.18 771.052,1266.89C772.606,1281.87 777.838,1309.84 777.048,1322.66C778.34,1331.34 815.64,1416.33 822.379,1429.7C864.897,1514.04 889.097,1545.37 941.371,1617.81C955.981,1638.06 955.295,1654.49 936.548,1670.89C910.988,1693.24 907.701,1682.55 880.11,1678.38C871.038,1755.47 842.297,1831.03 816.451,1902.26C793.882,1964.45 746.245,2061.35 770.65,2126.58L780.665,2132.25C828.402,2183.44 923.06,2171.65 986.403,2171.17C1072.31,2170.53 1262.03,2170.62 1346.62,2183.88C1414.3,2194.48 1505.82,2211.54 1571.99,2192.02C1588.84,2187.05 1598.51,2180.83 1612.5,2171.01C1633.45,2156.31 1627.65,2143.03 1625.7,2119.18C1625.85,2105.53 1609.52,2045.46 1606.06,2024.75C1595.08,1958.97 1582.05,1892.63 1577.42,1826.79C1574.8,1789.58 1583.1,1752.33 1582.04,1718.27C1582.09,1707.56 1583.52,1707.5 1592.1,1701.12C1592.11,1719.81 1585.43,1726.74 1596.82,1738.18C1640.75,1782.3 1740.93,1821.05 1798.75,1824.97C1850.21,1820.45 1835.01,1828.38 1862.98,1832.03L1871.47,1809.57L1890.98,1804.43C1897.26,1780.06 1886.35,1782.61 1910.74,1770.89C1911.76,1758.43 1909.87,1762.12 1906.67,1751.73C1912.99,1743.95 1917.31,1742.89 1917.54,1731.61C1908.9,1724.04 1905.77,1729.53 1894.76,1717.45C1898.02,1708.99 1902.33,1710.22 1905.36,1698.31C1893.12,1688.76 1875.53,1687.35 1878.6,1666.85C1872.14,1643.05 1793.08,1574.68 1769.53,1557.2C1739.55,1534.96 1667.73,1484.81 1633.68,1474.56C1589.55,1503.48 1485.56,1542.84 1433.27,1535.7C1461.39,1525.94 1584.81,1509.41 1617.04,1477.14C1603.7,1475.52 1582.33,1476.42 1571.12,1473.62C1558.81,1470.55 1551.71,1461.45 1541.2,1457.36C1519.3,1452.58 1514.43,1422.9 1513.13,1402.54C1511.82,1381.98 1515.69,1351.86 1529.02,1336.71C1549.43,1313.54 1569.33,1290.11 1604.07,1289C1621.08,1288.46 1622.38,1284 1637.61,1283.89L1639.14,1291.2C1656.56,1289.99 1662.78,1299.53 1680.08,1301.01C1680.8,1313.62 1682.38,1311.49 1689.81,1318.38C1694.43,1310.29 1698.3,1284.07 1700.6,1268.93C1702.35,1257.44 1704.66,1251.93 1707.31,1241.32C1713.86,1215.09 1708.99,1222.34 1719.53,1220.09C1726.47,1206.73 1743.39,1162.55 1748.07,1145.29C1759.16,1104.35 1750.19,1091.02 1746.44,1054.02C1754.75,1066.96 1759.07,1095.16 1758.89,1113.15C1766.92,1120.19 1818.21,1234.36 1829.11,1254.88C1837.11,1269.96 1849.45,1282.17 1857.27,1299.7C1864.51,1317.24 2045.94,1368.32 2087.61,1330.11C2076.49,1278.74 1977.16,1159.69 1937.43,1124.12C1903.6,1093.83 1876.36,1071.05 1838.56,1044.34C1820.39,1031.5 1745.73,984.837 1727.75,981.874L1732.88,1005.14C1678.64,893.627 1555.77,825.71 1438.33,799.487C1356.76,781.276 1347.87,794.175 1285,793.062L1296.25,788.481C1307.07,775.278 1337.48,757.234 1353.28,742.143C1370.22,725.953 1387.1,709.608 1402.38,693.537L1496.61,587.394C1504.75,579.065 1558.98,461.904 1562.54,447.685L1558.73,445.341C1558.03,444.982 1555.59,443.735 1554.75,443.383C1498.57,419.639 1403.38,453.092 1354.63,481.053C1345.26,486.427 1307.3,514.173 1304.86,514.82Z" style="fill:rgb(242,214,69);"/>
        <path d="M780.665,2132.25C775.158,2146 784.631,2142.19 794.458,2166.12C799.275,2177.85 809.62,2184.64 816.333,2192.2C849.764,2229.85 867.845,2216.71 879.364,2233.85C865.617,2256.24 850.643,2229.96 836.521,2235.61C828.172,2238.94 805.547,2253.26 799.264,2258.08C809.562,2267.58 826.734,2267.19 844.353,2284.22C856.641,2296.11 865.354,2314.02 867.466,2331.64C896.836,2325.63 1019.01,2296.53 1025.76,2270.53C1017.41,2266.89 1009.01,2266.8 999.555,2266.13C995.486,2265.84 987.827,2265.49 984.131,2264.51L974.084,2258.98C994.834,2258.64 1015.75,2262.59 1036.64,2262.29C1056.88,2261.99 1077.68,2261.47 1097.94,2260.91C1152.85,2259.39 1427.54,2278.77 1449.81,2290.51L1373.78,2287.17C1380.68,2321.37 1500.63,2371.43 1533.9,2379.36C1535.52,2351.74 1588.7,2324.71 1614.23,2327.31L1618.7,2326.65L1605.57,2315.67C1588.06,2319.24 1584.21,2304.26 1560.33,2291.54C1526.88,2273.73 1544.69,2296.04 1517.42,2284.21C1515.42,2260.71 1534.04,2272.79 1563.74,2247.03C1570.27,2241.37 1579.76,2234.05 1585.76,2227.87C1597.73,2215.55 1595.64,2210.06 1613.08,2207.89C1615.13,2197.78 1624.42,2183.91 1627.36,2168.46C1629.89,2155.13 1630.43,2131.31 1625.7,2119.18C1627.65,2143.03 1633.45,2156.31 1612.5,2171.01C1598.51,2180.83 1588.84,2187.05 1571.99,2192.02C1505.82,2211.54 1414.3,2194.48 1346.62,2183.88C1262.03,2170.62 1072.31,2170.53 986.403,2171.17C923.06,2171.65 828.402,2183.44 780.665,2132.25Z" style="fill:rgb(204,150,43);"/>
        <path d="M1669.52,1448.34L1951.56,1671.32C1958.81,1666.27 2021.37,1554.58 2027.5,1539.22L2083.7,1441.52C2049.89,1422.46 1993.96,1415.92 1926.26,1366.88C1906.31,1352.44 1901.59,1357.18 1876.82,1357.2C1824.92,1357.24 1751.87,1359.03 1704.51,1357.06C1703.29,1375.93 1701.04,1391.17 1693.11,1408.41C1686.28,1423.28 1673.62,1437.81 1669.52,1448.34Z" style="fill:rgb(242,214,69);"/>
        <path d="M1745.63,1173.83L1817.29,1269.43C1840.2,1298.2 1874.85,1326.4 1903.64,1351.18L1704.61,1352.02C1703.2,1312.09 1721.22,1200.99 1745.63,1173.83ZM1303.07,514.982L1304.86,514.82C1307.3,514.173 1345.26,486.427 1354.63,481.053C1403.38,453.092 1498.57,419.639 1554.75,443.383C1555.59,443.735 1558.03,444.982 1558.73,445.341L1562.54,447.685C1558.98,461.904 1504.75,579.065 1496.61,587.394C1488.01,616.402 1437.98,683.105 1418.07,709.103C1403.74,727.832 1387.39,746.582 1371.19,762.815C1342.61,791.465 1339.42,787.062 1296.25,788.481L1285,793.062C1347.87,794.175 1356.76,781.276 1438.33,799.487C1555.77,825.71 1678.64,893.627 1732.88,1005.14L1727.75,981.874C1745.73,984.837 1820.39,1031.5 1838.56,1044.34C1876.36,1071.05 1903.6,1093.83 1937.43,1124.12C1977.16,1159.69 2076.49,1278.74 2087.61,1330.11C2045.94,1368.32 1864.51,1317.24 1857.27,1299.7C1833.47,1289.72 1770.04,1203.68 1752.97,1174.42C1742.93,1157.21 1754.12,1158.02 1758.89,1113.15C1759.07,1095.16 1754.75,1066.96 1746.44,1054.02C1750.19,1091.02 1759.16,1104.35 1748.07,1145.29C1743.39,1162.55 1726.47,1206.73 1719.53,1220.09C1714.8,1241.16 1708.65,1259.12 1705.15,1281.11C1701.3,1305.2 1701.57,1324.72 1699.87,1348.25L1699.79,1356.39L1704.51,1357.06C1751.87,1359.03 1824.92,1357.24 1876.82,1357.2C1901.59,1357.18 1906.31,1352.44 1926.26,1366.88C1993.96,1415.92 2049.89,1422.46 2083.7,1441.52L2027.5,1539.22C2034.76,1539.22 2033.51,1537.33 2032.11,1544.21L2089.92,1442.44L2136.46,1452.08C2128.12,1379.56 2063.55,1264.01 2019.11,1207.13C1966.63,1139.95 1903.68,1080.58 1832.17,1033.9C1814.12,1022.12 1724.4,974.319 1718.88,968.703C1706.96,956.575 1693.09,934.263 1678.68,919.511C1603.3,842.286 1462.81,783.449 1357.21,784.943C1363.58,775.273 1416.2,723.683 1443.3,684.169C1469.65,645.756 1493.98,608.968 1515.37,566.432C1543.97,509.533 1620.2,341.787 1602.99,283.13L1584.85,283.13C1572.88,290.894 1554.67,297.096 1540.57,304.153C1467.98,340.477 1381.62,416.156 1329.28,478.104C1321.03,487.862 1304.89,503.177 1303.07,514.982Z" style="fill:rgb(3,3,5);"/>
        <path d="M1583.62,1812.6C1600.3,1816.47 1616.76,1824.35 1635.16,1828.27C1649.93,1831.41 1678.25,1834.49 1690,1840.67L1690.39,1907.67L1603.26,1969.12C1596.87,1960.56 1597.24,1945.37 1595.78,1934.97C1593.96,1921.95 1591.52,1909.1 1589.97,1896.08C1586.89,1870.34 1583.96,1838.34 1583.62,1812.6ZM1666.34,1434.86M1541.2,1457.36C1551.71,1461.45 1558.81,1470.55 1571.12,1473.62C1582.33,1476.42 1603.7,1475.52 1617.04,1477.14C1584.81,1509.41 1461.39,1525.94 1433.27,1535.7C1485.56,1542.84 1589.55,1503.48 1633.68,1474.56C1667.73,1484.81 1739.55,1534.96 1769.53,1557.2C1793.08,1574.68 1872.14,1643.05 1878.6,1666.85C1888.69,1674.19 1886.57,1678.55 1894.31,1683.76C1900.14,1687.68 1908.58,1688.79 1916.75,1693.93C1913.74,1712.18 1912.04,1704.01 1901.31,1715.06C1909.38,1718.88 1903.73,1716.06 1915.12,1715.81L1927.28,1742.28L1915.34,1751.09L1918.97,1773.5L1899.81,1785.29C1897.37,1809.94 1900.33,1809.36 1877.19,1815.6L1867.91,1839.89C1842.45,1839.56 1859.24,1828.69 1807.62,1830.53C1766.93,1845.14 1622.52,1829.12 1583.97,1804.38C1582.86,1789.73 1584.65,1756.58 1586.02,1740.16C1586.16,1738.41 1586.66,1730.18 1586.44,1728.87C1584.64,1718.01 1588.96,1726.17 1582.04,1718.27C1583.1,1752.33 1574.8,1789.58 1577.42,1826.79C1582.05,1892.63 1595.08,1958.97 1606.06,2024.75C1609.52,2045.46 1625.85,2105.53 1625.7,2119.18C1630.43,2131.31 1629.89,2155.13 1627.36,2168.46C1624.42,2183.91 1615.13,2197.78 1613.08,2207.89C1662.04,2155.71 1603.95,2038.82 1603.13,1977.1L1696.42,1910.46L1697.19,1841.78C1711.33,1837.11 1767.95,1843.47 1790.41,1841.19C1802.97,1839.91 1819.89,1834.24 1831.28,1835.94C1844.11,1837.85 1854.15,1844.78 1868.45,1845.93C1875.26,1837.87 1876.82,1831.67 1879.49,1821.15C1904.49,1811.61 1900.59,1820.09 1906,1788.79C1929.06,1775.34 1924.14,1780.09 1921.45,1754.35C1933.99,1744.16 1935.92,1741.95 1925.52,1725.05C1910.06,1699.91 1927.4,1716.7 1920.17,1691.36L1946.28,1694.83L2032.11,1544.21C2033.51,1537.33 2034.76,1539.22 2027.5,1539.22C2021.37,1554.58 1958.81,1666.27 1951.56,1671.32L1944.87,1688.61C1928.44,1687.21 1901.76,1685.58 1891.85,1672.24C1852.65,1619.46 1849.58,1618.49 1799,1572.39C1779.12,1554.27 1746.13,1534.21 1722.65,1517.42C1696.94,1499.03 1646.07,1472.7 1641.73,1468.36L1669.52,1448.34C1673.62,1437.81 1686.28,1423.28 1693.11,1408.41C1701.04,1391.17 1703.29,1375.93 1704.51,1357.06L1699.79,1356.39L1699.87,1348.25C1669.79,1296.95 1619.27,1272.32 1563.2,1312.06C1540.55,1328.12 1527.31,1345.42 1520.26,1375.03C1510.79,1414.79 1526.84,1428.05 1541.2,1457.36Z" style="fill:rgb(51,31,13);"/>
        <path d="M1649.97,2418.47L1672.69,2418.47C1701.53,2388.29 1672.58,2368.8 1652.14,2347.31C1638.61,2333.09 1606.09,2305.66 1586.59,2298.59L1605.57,2315.67L1618.7,2326.65C1631.59,2334.77 1685.2,2380.79 1678.48,2397.6C1661.7,2385.2 1657.1,2367.44 1630.15,2356.49C1636.22,2367.68 1698.88,2409.2 1661.91,2412.88C1647.55,2391.54 1642.09,2383.7 1609.21,2369.04L1615.51,2377.26C1624.94,2379.58 1650.7,2400.61 1653.96,2410.09C1639.05,2416.83 1552.27,2388.18 1533.9,2379.36C1500.63,2371.43 1380.68,2321.37 1373.78,2287.17L1449.81,2290.51C1427.54,2278.77 1152.85,2259.39 1097.94,2260.91C1077.68,2261.47 1056.88,2261.99 1036.64,2262.29C1015.75,2262.59 994.834,2258.64 974.084,2258.98L984.131,2264.51C987.827,2265.49 995.486,2265.84 999.555,2266.13C1009.01,2266.8 1017.41,2266.89 1025.76,2270.53C1019.01,2296.53 896.836,2325.63 867.466,2331.64C843.493,2338.47 751.327,2353.87 730.153,2348.68C735.559,2330.93 776.492,2322.99 791.367,2312.35L765.437,2316.92C758.445,2323.08 747.28,2326.63 738.221,2332.2C729.147,2337.79 723.462,2348.49 717.12,2345.48C715.983,2344.67 705.159,2345.82 722.923,2328.12C738.688,2312.41 762.704,2300.07 782.404,2287.98C734.741,2300.66 724.292,2327.44 707.258,2331.99C703.361,2315.78 720.133,2303.73 732.068,2295.38C745.06,2286.28 758.756,2274.7 772.34,2266.48L783.647,2260.9C792.251,2250.62 810.428,2242.57 823.188,2235.73C852.776,2219.86 839.817,2233.09 870.214,2234.84C856.39,2222.94 793.654,2214.8 770.65,2126.58C746.245,2061.35 793.882,1964.45 816.451,1902.26C842.297,1831.03 871.038,1755.47 880.11,1678.38L884.741,1629.55C892.363,1635.1 888.57,1639.23 899.734,1644.68C895.533,1629.66 867.501,1589.17 858.406,1572.31C815.89,1493.46 781.752,1405.39 770.108,1316.52C768.923,1299.43 765.036,1281.32 763.898,1262.98C762.681,1243.37 762.4,1223.88 761.128,1204.27L755.105,1084.23C774.564,1073.32 773.878,1090.73 781.851,1054.78C821.383,1057.37 794.722,1062.06 821.717,1038.36C831.258,1039.23 831.977,1041.98 840.666,1046.1C852.671,1040.67 852.819,1035.6 866.574,1031.95L882.498,1051.6L902.243,1045.12C909.081,1051.67 931.016,1079.41 937.448,1087.89C946.124,1091.12 985.495,1145.56 995.175,1159.3C1012.33,1183.64 1030.37,1216.03 1043.73,1241.91C1064.4,1281.97 1108.34,1387.32 1116.2,1429.1C1118.3,1387.89 1077.91,1314.41 1070.53,1284.51C1091.75,1270.7 1110.72,1254.65 1122.76,1231.81C1143.52,1192.39 1129.11,1180.16 1127.11,1145.54C1113.15,1133.21 1108.41,1117.6 1087.87,1105.65C1064.35,1091.98 1051.21,1097.75 1027.76,1100.73C1040.51,1107.18 1063.33,1096.73 1089.06,1112.99C1156.5,1155.6 1124.56,1251.55 1085.38,1265.92C1081.47,1272.59 1075.24,1275.72 1068.13,1278.56C1059.15,1262.38 1050.7,1243.98 1041.86,1227.16C1035.24,1214.57 1015.9,1188.64 1015.32,1177.2C1004.68,1169.68 991.741,1150.39 988.296,1137.26C992.836,1129.06 997.662,1122.78 1004.88,1116.72C1010.52,1111.99 1011.78,1112.18 1017.26,1108.96C1022.49,1105.88 1030.08,1107.26 1021.82,1103.12L1017.97,1102.14C1025.97,1089.46 1030.65,1089 1037.8,1071.57C1042.28,1060.64 1046.57,1046.84 1054.42,1039.51C1054.68,1021.8 1107.31,923.975 1119.48,901.677C1146.52,852.115 1178.21,833.51 1227.93,809.524C1206.58,812.118 1193.34,821.908 1174.93,830.971C1188.17,742.693 1215.3,661.405 1260.34,584.871C1272.2,564.72 1296.78,533.319 1304.86,514.82L1303.07,514.982C1269.29,533.32 1200.33,688.399 1185.35,747.381C1180.69,765.718 1171.21,832.274 1162.41,841.461C1132.3,872.914 1138.2,855.83 1110.43,906.947C1070.1,981.169 1065.76,1005.09 1035.59,1066.38C1023,1091.96 1001.44,1110.62 983.612,1132.13L916.647,1053.57C906.92,1036.7 902.729,1037.41 885.942,1045.06L867.215,1026.62C851.019,1030.27 853.047,1034.33 841.256,1039.83C833.205,1036.36 828.158,1032.2 818.531,1031.3C810.606,1038.52 807.751,1045.11 802.145,1051.58L779.527,1049.66L770.875,1073.01C739.459,1080.94 750.785,1066.38 752.665,1164.67C754.199,1244.85 761.931,1332.97 783.935,1409.39C800.333,1466.34 836.006,1549.87 868.506,1601.24C907.811,1663.36 812.781,1897.6 789.396,1961.91C763.819,2032.24 735.087,2099.54 786.857,2176.9C803.546,2201.84 813.667,2204.65 832.843,2223.08C821.43,2234.75 768.324,2259.51 749.201,2273.28C732.944,2284.99 726.733,2290.65 712.952,2304.12C707.429,2309.52 700.461,2314.68 700.185,2324.05C700.116,2326.42 709.073,2347.22 710.07,2348.83C733.855,2372.51 932.914,2322.19 970.381,2310.58C993.853,2303.31 1025.11,2292.39 1033.88,2268.62C1093.91,2269.82 1139.33,2264.39 1201.73,2270.48C1256.4,2275.81 1311.31,2281.47 1366.02,2286.23C1376.48,2303.07 1369.97,2310.67 1418.44,2335.4C1442.15,2347.49 1465.93,2359.11 1490.76,2369.23C1540.04,2389.32 1559.02,2394.93 1607.39,2408.81C1619.24,2412.2 1641.76,2415.03 1649.97,2418.47Z" style="fill:rgb(38,28,13);"/>
        <path d="M1251.26,1306.9C1251.17,1345.44 1242.16,1430.18 1293.9,1438.27C1331.16,1444.1 1374.78,1392.57 1388.56,1363.85C1373.61,1311.13 1300,1300.37 1251.26,1306.9Z" style="fill:rgb(207,84,92);"/>
        <path d="M880.11,1678.38C907.701,1682.55 910.988,1693.24 936.548,1670.89C955.295,1654.49 955.981,1638.06 941.371,1617.81C889.097,1545.37 864.897,1514.04 822.379,1429.7C815.64,1416.33 778.34,1331.34 777.048,1322.66L770.108,1316.52C781.752,1405.39 815.89,1493.46 858.406,1572.31C867.501,1589.17 895.533,1629.66 899.734,1644.68C888.57,1639.23 892.363,1635.1 884.741,1629.55L880.11,1678.38Z" style="fill:rgb(204,150,43);"/>
        <path d="M1015.32,1177.2C1015.9,1188.64 1035.24,1214.57 1041.86,1227.16C1050.7,1243.98 1059.15,1262.38 1068.13,1278.56C1075.24,1275.72 1081.47,1272.59 1085.38,1265.92C1088.13,1250.55 1114.44,1234.52 1120.84,1199.79C1127.15,1165.5 1113.44,1153.72 1106.75,1142.93C1094.93,1123.86 1093.27,1117.33 1064.93,1111.73C1048.75,1108.53 1036.83,1104.49 1021.18,1113.61C1010.77,1119.68 998.529,1130.24 999.715,1142.83C1001.3,1159.72 1014.91,1152.74 1015.32,1177.2Z" style="fill:rgb(214,51,23);"/>
        <path d="M1583.62,1812.6C1583.96,1838.34 1586.89,1870.34 1589.97,1896.08C1591.52,1909.1 1593.96,1921.95 1595.78,1934.97C1597.24,1945.37 1596.87,1960.56 1603.26,1969.12L1690.39,1907.67L1690,1840.67C1678.25,1834.49 1649.93,1831.41 1635.16,1828.27C1616.76,1824.35 1600.3,1816.47 1583.62,1812.6Z" style="fill:rgb(201,148,48);"/>
        <path d="M1213.76,995.81C1251.68,984.862 1260.94,1036.64 1231.3,1044.86C1194.16,1055.16 1184.22,1004.34 1213.76,995.81ZM1178.92,985.748C1110.35,1008.75 1127.04,1128.47 1220.17,1103.35C1291.37,1084.14 1267.74,955.963 1178.92,985.748Z" style="fill:rgb(3,3,5);"/>
        <path d="M1594.69,1130.41C1632.5,1121.96 1637.53,1176.03 1608.06,1184.48C1573.08,1194.5 1556.81,1138.87 1594.69,1130.41ZM1596.49,1124.4C1512.95,1140.67 1534.69,1262.36 1614.53,1249.71C1693.38,1237.21 1669.98,1110.09 1596.49,1124.4Z" style="fill:rgb(3,3,5);"/>
        <path d="M1382.88,1550.39C1379.72,1548.49 1382.97,1549.18 1376.96,1548.39C1373.59,1547.94 1373.51,1548.12 1370.38,1548.24C1314.41,1550.32 1264.41,1541.69 1213.61,1515.33C1197.51,1506.98 1182.13,1493.45 1170.91,1487.97C1174.54,1522.28 1212.38,1586.44 1246.46,1594.7C1292.83,1605.95 1350.25,1578.86 1382.88,1550.39Z" style="fill:rgb(201,153,41);"/>
        <path d="M1951.56,1671.32L1669.52,1448.34L1641.73,1468.36C1646.07,1472.7 1696.94,1499.03 1722.65,1517.42C1746.13,1534.21 1779.12,1554.27 1799,1572.39C1849.58,1618.49 1852.65,1619.46 1891.85,1672.24C1901.76,1685.58 1928.44,1687.21 1944.87,1688.61L1951.56,1671.32Z" style="fill:rgb(204,153,48);"/>
        <path d="M1582.04,1718.27C1588.96,1726.17 1584.64,1718.01 1586.44,1728.87C1586.66,1730.18 1586.16,1738.41 1586.02,1740.16C1584.65,1756.58 1582.86,1789.73 1583.97,1804.38C1622.52,1829.12 1766.93,1845.14 1807.62,1830.53L1798.75,1824.97C1740.93,1821.05 1640.75,1782.3 1596.82,1738.18C1585.43,1726.74 1592.11,1719.81 1592.1,1701.12C1583.52,1707.5 1582.09,1707.56 1582.04,1718.27Z" style="fill:rgb(204,153,48);"/>
        <path d="M1251.26,1306.9C1300,1300.37 1373.61,1311.13 1388.56,1363.85C1405.95,1337.21 1431.98,1314.04 1373.28,1277.97C1337.36,1255.9 1293.99,1248.38 1255.01,1269.39L1251.26,1306.9Z" style="fill:rgb(140,26,41);"/>
        <path d="M1266.07,1210.09C1259.92,1219.55 1256.14,1242.78 1259.43,1255C1277.08,1262.9 1318.06,1229.31 1383.3,1276.49C1401.8,1289.86 1397.14,1288.8 1410.41,1302.66C1422.14,1298.46 1425.85,1300.5 1435.62,1276.49C1440.9,1263.51 1440.11,1268.47 1436.82,1267.58C1435.03,1259.96 1443.57,1265.2 1415.59,1255.91C1406.9,1253.02 1398.7,1249.21 1392.39,1244.72C1376.45,1233.36 1371.71,1225.35 1360.43,1211.43C1340.17,1213.43 1331.66,1216.11 1310.11,1215.65C1300.04,1215.44 1267.91,1209.81 1266.07,1210.09Z" style="fill:rgb(89,13,13);"/>
        <path d="M772.34,2266.48C779.108,2272.49 780.715,2270.02 766.947,2278.77C775.334,2283.12 817.378,2280.35 750.066,2315.19L765.437,2316.92L791.367,2312.35C776.492,2322.99 735.559,2330.93 730.153,2348.68C751.327,2353.87 843.493,2338.47 867.466,2331.64C865.354,2314.02 856.641,2296.11 844.353,2284.22C826.734,2267.19 809.562,2267.58 799.264,2258.08L783.647,2260.9L772.34,2266.48Z" style="fill:rgb(235,212,61);"/>
        <path d="M1388.56,1363.85C1374.78,1392.57 1331.16,1444.1 1293.9,1438.27C1242.16,1430.18 1251.17,1345.44 1251.26,1306.9L1255.01,1269.39C1293.99,1248.38 1337.36,1255.9 1373.28,1277.97C1431.98,1314.04 1405.95,1337.21 1388.56,1363.85ZM1266.07,1210.09C1267.91,1209.81 1300.04,1215.44 1310.11,1215.65C1331.66,1216.11 1340.17,1213.43 1360.43,1211.43C1371.71,1225.35 1376.45,1233.36 1392.39,1244.72C1398.7,1249.21 1406.9,1253.02 1415.59,1255.91C1443.57,1265.2 1435.03,1259.96 1436.82,1267.58C1440.11,1268.47 1440.9,1263.51 1435.62,1276.49C1425.85,1300.5 1422.14,1298.46 1410.41,1302.66C1397.14,1288.8 1401.8,1289.86 1383.3,1276.49C1318.06,1229.31 1277.08,1262.9 1259.43,1255C1256.14,1242.78 1259.92,1219.55 1266.07,1210.09ZM1479.29,1249.54C1436.28,1264.77 1384.39,1246.7 1367.19,1203.51C1311.91,1206.64 1286.37,1226.37 1246.34,1175.84C1250.23,1212.19 1262.27,1163.61 1251.06,1248.48C1247.54,1275.1 1244.83,1305.86 1244.74,1332.65C1244.61,1376.49 1249.72,1458.71 1314.44,1442.74C1349.86,1433.99 1385.4,1382.48 1403,1352.84L1449.24,1265.33C1456.91,1257.03 1464.56,1264.24 1479.29,1249.54Z" style="fill:rgb(48,10,10);"/>
        <path d="M1296.25,788.481C1339.42,787.062 1342.61,791.465 1371.19,762.815C1387.39,746.582 1403.74,727.832 1418.07,709.103C1437.98,683.105 1488.01,616.402 1496.61,587.394L1402.38,693.537C1387.1,709.608 1370.22,725.953 1353.28,742.143C1337.48,757.234 1307.07,775.278 1296.25,788.481Z" style="fill:rgb(204,153,48);"/>
        <path d="M1533.9,2379.36C1552.27,2388.18 1639.05,2416.83 1653.96,2410.09C1650.7,2400.61 1624.94,2379.58 1615.51,2377.26L1604.73,2377.64C1608.64,2361.15 1610.5,2365.91 1611.23,2365.38C1612.67,2364.34 1611.45,2366.55 1617,2362.55C1617.48,2362.2 1618.21,2361.66 1618.62,2361.3C1619.01,2360.97 1619.57,2360.27 1619.89,2359.93C1639.12,2339.62 1626.05,2365.42 1631.38,2345.61C1622.63,2336.09 1621.02,2340.49 1614.23,2327.31C1588.7,2324.71 1535.52,2351.74 1533.9,2379.36Z" style="fill:rgb(235,212,61);"/>
        <path d="M1857.27,1299.7C1849.45,1282.17 1837.11,1269.96 1829.11,1254.88C1818.21,1234.36 1766.92,1120.19 1758.89,1113.15C1754.12,1158.02 1742.93,1157.21 1752.97,1174.42C1770.04,1203.68 1833.47,1289.72 1857.27,1299.7Z" style="fill:rgb(204,153,48);"/>
        <path d="M770.108,1316.52L777.048,1322.66C777.838,1309.84 772.606,1281.87 771.052,1266.89C769.11,1248.18 769.034,1228.77 768.581,1209.96C767.623,1170.23 763.802,1129.37 762.809,1089.44L780.79,1085.1L785.91,1064.73C800.893,1063.06 795.469,1069.36 806.824,1063.95C814.427,1060.34 815.417,1055.68 821.469,1050.03C830.925,1050.5 831.054,1053.13 840.823,1052C851.928,1050.71 847.322,1047.97 856.107,1045.95C874.13,1041.79 874.314,1058.77 888.091,1057.21C903.925,1055.4 892.14,1045.14 920.327,1077.65C929.407,1088.12 924.303,1088.78 937.448,1087.89C931.016,1079.41 909.081,1051.67 902.243,1045.12L882.498,1051.6L866.574,1031.95C852.819,1035.6 852.671,1040.67 840.666,1046.1C831.977,1041.98 831.258,1039.23 821.717,1038.36C794.722,1062.06 821.383,1057.37 781.851,1054.78C773.878,1090.73 774.564,1073.32 755.105,1084.23L761.128,1204.27C762.4,1223.88 762.681,1243.37 763.898,1262.98C765.036,1281.32 768.923,1299.43 770.108,1316.52Z" style="fill:rgb(227,212,84);"/>
        <path d="M1541.2,1457.36C1526.84,1428.05 1510.79,1414.79 1520.26,1375.03C1527.31,1345.42 1540.55,1328.12 1563.2,1312.06C1619.27,1272.32 1669.79,1296.95 1699.87,1348.25C1701.57,1324.72 1701.3,1305.2 1705.15,1281.11C1708.65,1259.12 1714.8,1241.16 1719.53,1220.09C1708.99,1222.34 1713.86,1215.09 1707.31,1241.32C1704.66,1251.93 1702.35,1257.44 1700.6,1268.93C1698.3,1284.07 1694.43,1310.29 1689.81,1318.38C1682.38,1311.49 1680.8,1313.62 1680.08,1301.01C1662.78,1299.53 1656.56,1289.99 1639.14,1291.2L1637.61,1283.89C1622.38,1284 1621.08,1288.46 1604.07,1289C1569.33,1290.11 1549.43,1313.54 1529.02,1336.71C1515.69,1351.86 1511.82,1381.98 1513.13,1402.54C1514.43,1422.9 1519.3,1452.58 1541.2,1457.36Z" style="fill:rgb(227,212,84);"/>
        <path d="M1596.49,1124.4C1669.98,1110.09 1693.38,1237.21 1614.53,1249.71C1534.69,1262.36 1512.95,1140.67 1596.49,1124.4ZM1575.35,1123.27C1566.98,1129.4 1559.9,1124.14 1543.78,1153.85C1512.76,1211 1568.22,1278.54 1633.11,1251.33C1650.29,1244.13 1660.49,1234.46 1665.52,1216.19C1671.32,1195.13 1672.74,1177.03 1665.16,1156.98C1647.75,1110.89 1591.3,1111.6 1575.35,1123.27Z" style="fill:rgb(227,212,84);"/>
        <path d="M1178.92,985.748C1267.74,955.963 1291.37,1084.14 1220.17,1103.35C1127.04,1128.47 1110.35,1008.75 1178.92,985.748ZM1174.75,978.175C1163.29,982.534 1146.29,999.452 1138.66,1010.33C1116.17,1042.41 1131.34,1132.03 1223.41,1109.78C1260.55,1100.8 1299.89,1027.14 1237.58,983.833C1223.76,974.225 1189.18,972.684 1174.75,978.175Z" style="fill:rgb(227,212,84);"/>
        <path d="M1594.69,1130.41C1556.81,1138.87 1573.08,1194.5 1608.06,1184.48C1637.53,1176.03 1632.5,1121.96 1594.69,1130.41Z" style="fill:rgb(250,250,250);"/>
        <path d="M1015.32,1177.2C1014.91,1152.74 1001.3,1159.72 999.715,1142.83C998.529,1130.24 1010.77,1119.68 1021.18,1113.61C1036.83,1104.49 1048.75,1108.53 1064.93,1111.73C1093.27,1117.33 1094.93,1123.86 1106.75,1142.93C1113.44,1153.72 1127.15,1165.5 1120.84,1199.79C1114.44,1234.52 1088.13,1250.55 1085.38,1265.92C1124.56,1251.55 1156.5,1155.6 1089.06,1112.99C1063.33,1096.73 1040.51,1107.18 1027.76,1100.73L1021.82,1103.12C1030.08,1107.26 1022.49,1105.88 1017.26,1108.96C1011.78,1112.18 1010.52,1111.99 1004.88,1116.72C997.662,1122.78 992.836,1129.06 988.296,1137.26C991.741,1150.39 1004.68,1169.68 1015.32,1177.2Z" style="fill:rgb(181,59,46);"/>
        <path d="M765.437,2316.92L750.066,2315.19C817.378,2280.35 775.334,2283.12 766.947,2278.77C780.715,2270.02 779.108,2272.49 772.34,2266.48C758.756,2274.7 745.06,2286.28 732.068,2295.38C720.133,2303.73 703.361,2315.78 707.258,2331.99C724.292,2327.44 734.741,2300.66 782.404,2287.98C762.704,2300.07 738.688,2312.41 722.923,2328.12C705.159,2345.82 715.983,2344.67 717.12,2345.48C723.462,2348.49 729.147,2337.79 738.221,2332.2C747.28,2326.63 758.445,2323.08 765.437,2316.92Z" style="fill:rgb(227,212,84);"/>
        <path d="M1213.76,995.81C1184.22,1004.34 1194.16,1055.16 1231.3,1044.86C1260.94,1036.64 1251.68,984.862 1213.76,995.81Z" style="fill:rgb(247,250,245);"/>
        <path d="M1614.23,2327.31C1621.02,2340.49 1622.63,2336.09 1631.38,2345.61C1626.05,2365.42 1639.12,2339.62 1619.89,2359.93C1619.57,2360.27 1619.01,2360.97 1618.62,2361.3C1618.21,2361.66 1617.48,2362.2 1617,2362.55C1611.45,2366.55 1612.67,2364.34 1611.23,2365.38C1610.5,2365.91 1608.64,2361.15 1604.73,2377.64L1615.51,2377.26L1609.21,2369.04C1642.09,2383.7 1647.55,2391.54 1661.91,2412.88C1698.88,2409.2 1636.22,2367.68 1630.15,2356.49C1657.1,2367.44 1661.7,2385.2 1678.48,2397.6C1685.2,2380.79 1631.59,2334.77 1618.7,2326.65L1614.23,2327.31Z" style="fill:rgb(227,212,84);"/>
        <path d="M1798.75,1824.97L1807.62,1830.53C1859.24,1828.69 1842.45,1839.56 1867.91,1839.89L1877.19,1815.6C1900.33,1809.36 1897.37,1809.94 1899.81,1785.29L1918.97,1773.5L1915.34,1751.09L1927.28,1742.28L1915.12,1715.81C1903.73,1716.06 1909.38,1718.88 1901.31,1715.06C1912.04,1704.01 1913.74,1712.18 1916.75,1693.93C1908.58,1688.79 1900.14,1687.68 1894.31,1683.76C1886.57,1678.55 1888.69,1674.19 1878.6,1666.85C1875.53,1687.35 1893.12,1688.76 1905.36,1698.31C1902.33,1710.22 1898.02,1708.99 1894.76,1717.45C1905.77,1729.53 1908.9,1724.04 1917.54,1731.61C1917.31,1742.89 1912.99,1743.95 1906.67,1751.73C1909.87,1762.12 1911.76,1758.43 1910.74,1770.89C1886.35,1782.61 1897.26,1780.06 1890.98,1804.43L1871.47,1809.57L1862.98,1832.03C1835.01,1828.38 1850.21,1820.45 1798.75,1824.97Z" style="fill:rgb(227,212,84);"/>
        <path d="M1605.57,2315.67L1586.59,2298.59L1544.58,2274.02L1521.13,2280.43C1531.97,2268.96 1538.8,2273.69 1547.29,2268.18C1554.31,2263.62 1546.61,2263.77 1559.76,2262.89C1577.1,2260.09 1609.27,2225.76 1613.08,2207.89C1595.64,2210.06 1597.73,2215.55 1585.76,2227.87C1579.76,2234.05 1570.27,2241.37 1563.74,2247.03C1534.04,2272.79 1515.42,2260.71 1517.42,2284.21C1544.69,2296.04 1526.88,2273.73 1560.33,2291.54C1584.21,2304.26 1588.06,2319.24 1605.57,2315.67Z" style="fill:rgb(186,148,64);"/>
        <path d="M783.647,2260.9L799.264,2258.08C805.547,2253.26 828.172,2238.94 836.521,2235.61C850.643,2229.96 865.617,2256.24 879.364,2233.85C867.845,2216.71 849.764,2229.85 816.333,2192.2C809.62,2184.64 799.275,2177.85 794.458,2166.12C784.631,2142.19 775.158,2146 780.665,2132.25L770.65,2126.58C793.654,2214.8 856.39,2222.94 870.214,2234.84C839.817,2233.09 852.776,2219.86 823.188,2235.73C810.428,2242.57 792.251,2250.62 783.647,2260.9Z" style="fill:rgb(186,150,77);"/>
        <path d="M1021.82,1103.12L1027.76,1100.73C1051.21,1097.75 1064.35,1091.98 1087.87,1105.65C1108.41,1117.6 1113.15,1133.21 1127.11,1145.54C1128.9,1132.03 1126.55,1129.28 1116.63,1121.64C1106.09,1113.53 1110.12,1112.7 1098.03,1103.8C1078.21,1089.2 1063.51,1090.06 1039.05,1090.19C1041.37,1070.17 1057.51,1059.5 1054.42,1039.51C1046.57,1046.84 1042.28,1060.64 1037.8,1071.57C1030.65,1089 1025.97,1089.46 1017.97,1102.14L1021.82,1103.12Z" style="fill:rgb(227,212,84);"/>
        <path d="M1401.65,1144.8C1390.88,1147.92 1393.4,1147.99 1382.42,1145.66L1379.53,1131.97C1391.74,1132.76 1396.91,1132.88 1401.65,1144.8ZM1371.49,1131.68C1371.31,1145.4 1371.23,1143.61 1380.12,1152.67C1393.34,1153.91 1420.1,1155.01 1405.73,1134.12C1395.91,1119.85 1382.95,1122.73 1371.49,1131.68Z" style="fill:rgb(227,212,84);"/>
        <path d="M1586.59,2298.59C1579.53,2287.72 1561.91,2279.74 1551.62,2269.96L1559.76,2262.89C1546.61,2263.77 1554.31,2263.62 1547.29,2268.18C1538.8,2273.69 1531.97,2268.96 1521.13,2280.43L1544.58,2274.02L1586.59,2298.59Z" style="fill:rgb(77,51,23);"/>
        <path d="M1382.42,1145.66C1393.4,1147.99 1390.88,1147.92 1401.65,1144.8C1396.91,1132.88 1391.74,1132.76 1379.53,1131.97L1382.42,1145.66Z" style="fill:rgb(18,13,5);"/>
        <path d="M1666.34,1434.86" style="fill:rgb(214,51,23);"/>
        <path d="M1666.34,1434.86M1666.34,1434.86" style="fill:rgb(181,59,46);"/>
        <path d="M1695.95,1382.9C1706.36,1337.44 1661.2,1295.9 1612.01,1299.66C1499.99,1308.24 1489.13,1481.85 1611.74,1472.61C1654.08,1469.42 1687.02,1421.89 1695.95,1382.9Z" style="fill:rgb(212,51,28);"/>
        <rect x="906.855" y="1858.44" width="150.834" height="258.402" style="fill:rgb(212,51,28);stroke:black;stroke-width:3.5px;"/>
        <g transform="matrix(1,0,0,1.3289,221.882,-696.22)">
            <rect x="906.855" y="1858.44" width="150.834" height="258.402" style="fill:rgb(212,51,28);stroke:black;stroke-width:2.98px;"/>
        </g>
        <g transform="matrix(1,0,0,1.75085,442.936,-1589.43)">
            <rect x="906.855" y="1858.44" width="150.834" height="258.402" style="fill:rgb(212,51,28);stroke:black;stroke-width:2.45px;"/>
        </g>
    </g>
</svg>
